<svg xmlns="http://www.w3.org/2000/svg" viewBox="0 0 1037 416"><defs><style>.cls-1{fill:none;}.cls-1,.cls-2{stroke:#006837;stroke-width:24px;}.cls-1,.cls-11,.cls-13,.cls-2,.cls-7,.cls-9{stroke-miterlimit:10;}.cls-2{fill:#006837;opacity:0.81;}.cls-17,.cls-18,.cls-3{fill:#39b54a;}.cls-4{font-size:97.46px;}.cls-4,.cls-9{fill:#fff;}.cls-14,.cls-17,.cls-18,.cls-4{font-family:ArialRoundedMTBold, Arial Rounded MT Bold;}.cls-5,.cls-7{fill:#f15a24;}.cls-6{fill:#333;}.cls-11,.cls-13,.cls-7,.cls-9{stroke:#333;}.cls-11,.cls-13,.cls-7{stroke-width:5px;}.cls-8{fill:#ffdbac;}.cls-9{stroke-width:4px;}.cls-10,.cls-11{fill:#009245;}.cls-12,.cls-13{fill:#fbb03b;}.cls-14{font-size:44px;}.cls-15{letter-spacing:-0.02em;}.cls-16{letter-spacing:-0.01em;}.cls-17{font-size:177.68px;}.cls-18{font-size:67px;}</style></defs><title>Asset 5</title><g id="Layer_2" data-name="Layer 2"><g id="Layer_1-2" data-name="Layer 1"><path class="cls-1" d="M395,151.13V264.87a59.4,59.4,0,0,1-16.8,41.51l-78.58,80.43A56.68,56.68,0,0,1,259.07,404H147.93a56.68,56.68,0,0,1-40.55-17.19L28.8,306.38A59.4,59.4,0,0,1,12,264.87V151.13a59.4,59.4,0,0,1,16.8-41.51l78.58-80.43A56.68,56.68,0,0,1,147.93,12H259.07a56.68,56.68,0,0,1,40.55,17.19l78.58,80.43A59.4,59.4,0,0,1,395,151.13Z"/><path class="cls-2" d="M395,151.13V264.87a59.4,59.4,0,0,1-16.8,41.51l-78.58,80.43A56.68,56.68,0,0,1,259.07,404H147.93a56.68,56.68,0,0,1-40.55-17.19L28.8,306.38A59.4,59.4,0,0,1,12,264.87V151.13a59.4,59.4,0,0,1,16.8-41.51l78.58-80.43A56.68,56.68,0,0,1,147.93,12H259.07a56.68,56.68,0,0,1,40.55,17.19l78.58,80.43A59.4,59.4,0,0,1,395,151.13Z"/><path class="cls-3" d="M182.41,286.94l-95-12.67c-8.7-2.62-18.59-.34-23.44,5.16-5.35,6.08-3.32,14.66,5.07,19.25-3.45,9.74-.84,16.7.63,19.71,2.79,5.73,7.56,9.8,12,13.61,8.08,6.9,10.4,6,14.57,10.8,7,8.11,2.5,13.08,8.23,16.43,6.88,4,14.51-2.5,29.77-.47,14.15,1.88,13.89,8.31,27.24,9.86,13.84,1.6,17.51,8.52,33.88,9.34,14.17.7,14.29-7.74,26.29-8.41,12.32-.68,13.07-6.18,26.61-7.51,14-1.37,17.5,4.08,26.6,1.41,11-3.23,8.32-11.91,20.27-16.43,11.15-4.21,19.23,1.19,25.33-3.28,6.44-4.71-1.34-11.58,5.07-20.18,5.64-7.56,14-5.41,19-12.68,6.91-10-2.91-22.88-4.43-24.87-2.46-3.22-5.67-7.43-12-9.86-11.38-4.34-25.09,0-28.51.94-16.52,4.74-62.12,9.51-167.22,13.14"/><text></text><text class="cls-4" transform="translate(121.53 115.68) scale(1.19 1)">&lt;/&gt;</text><ellipse class="cls-5" cx="300" cy="294.5" rx="45.5" ry="15" transform="translate(-1.59 1.63) rotate(-0.31)"/><path class="cls-6" d="M339.5,294.5c.07-1.1-.45.28-1.35,1a20.7,20.7,0,0,1-5.33,2.84,73.39,73.39,0,0,1-19.46,4.41c-14.5,1.57-30.16,1.28-44.12-3.32-2.94-1-7.26-3.06-8.66-4.63-.7-.78.32-.39-.15.22-.14.16.3-.54.47-.63,1.64-.83,3.06-2.32,4.84-3.13,12.6-5.79,28.22-6.26,41.81-5.61a90,90,0,0,1,22.58,3.72,27.47,27.47,0,0,1,7.4,3.3,7.91,7.91,0,0,1,2,1.78c-.39-.55,0,.81-.07.05.52,7.69,12.52,7.23,12-.5-1-14.64-23.08-18.15-34.17-19.47-18.54-2.21-40.07-1.93-57.28,6.22-5.08,2.41-10.25,6.16-11.36,12s3,10.81,7.68,13.85c6.47,4.23,14.71,6.09,22.24,7.28a135.74,135.74,0,0,0,31.78,1.16c12.66-1,40.15-3.83,41.11-21.07C351.92,286.3,339.93,286.84,339.5,294.5Z"/><path class="cls-7" d="M331.76,269.45a26.16,26.16,0,0,1-.23,3.66c-2,14.64-16,26.06-33.17,26.16-18.54.1-33.65-13.09-33.74-29.45-.08-13.64,10.31-25.19,24.51-28.71A37.51,37.51,0,0,1,298,240C316.56,239.9,331.67,253.09,331.76,269.45Z"/><path class="cls-8" d="M329.89,269.46a26.16,26.16,0,0,1-.22,3.66,25,25,0,0,1-19.4,9.51c-14.1.07-25.6-11.78-25.68-26.48a27.28,27.28,0,0,1,4.36-15,34.15,34.15,0,0,1,8.53-1.12C315.29,239.91,329.8,253.1,329.89,269.46Z"/><path class="cls-6" d="M325.9,269.63c-.15,5.58-9.59,8.59-14.25,8.94a20.79,20.79,0,0,1-14.84-4.8C287.6,266.08,286.4,253,292.46,243l-2.32,1.91c16.72-4,35.22,6.49,35.76,24.7.15,5.14,8.14,4.82,8-.34a34,34,0,0,0-21-30.17,38.84,38.84,0,0,0-21.8-2.52c-4,.69-5.34,1.58-7.18,5.29A31.39,31.39,0,0,0,280.77,253c-1.26,13.61,6.54,27.07,19.55,31.83a28.68,28.68,0,0,0,20-.11,30,30,0,0,0,9.21-5.68c3.41-3.08,4.24-5.25,4.36-9.78C334,264.15,326,264.49,325.9,269.63Z"/><path class="cls-9" d="M306.65,239.94a28.58,28.58,0,0,1-18.09,1.11A30,30,0,0,1,299.21,239,28.54,28.54,0,0,1,306.65,239.94Z"/><path class="cls-6" d="M326.65,293.75c9-12.37,12.55-28.42,5.14-42.45-6.51-12.32-18.86-17.72-32.25-18.16a35.2,35.2,0,0,0-32.12,18.79c-6.81,13-5.14,28.28,3.08,40.29,3.61,5.28,12.28.28,8.63-5.05-6.17-9-8.25-20.18-3.07-30.2a25.24,25.24,0,0,1,23.48-13.83c10,.33,18.79,4,23.61,13.2,5.72,11,1.68,23-5.14,32.37-3.79,5.21,4.88,10.2,8.64,5Z"/><ellipse class="cls-8" cx="298" cy="211.5" rx="28.5" ry="28" transform="translate(85.02 508.45) rotate(-89.72)"/><path class="cls-6" d="M322,211.51c-.23,13.16-10.54,24.48-24,24.49s-24-11.37-24-24.51S284.73,187,298,187c13.59,0,23.61,11.36,24,24.51.15,5.14,8.15,4.82,8-.34-.39-13.29-8.33-25.42-20.94-30.13a31.92,31.92,0,0,0-36,10.09,33.22,33.22,0,0,0-2.47,37.19A32.08,32.08,0,0,0,304,243.39c15.47-3,25.71-16.82,26-32.22C330.09,206,322.09,206.37,322,211.51Z"/><path class="cls-6" d="M293.61,204.08a4,4,0,0,1,.75,4.52,5.47,5.47,0,0,1-9.09,1.35,3.88,3.88,0,0,1-.5-4.57,5.76,5.76,0,0,0,2.92,1.47,5.53,5.53,0,0,0,1.76,0,5.41,5.41,0,0,0,1.73-.5A6.1,6.1,0,0,0,293.61,204.08Z"/><path class="cls-6" d="M306.09,225.89a3.15,3.15,0,0,1-.27,3.15,7.19,7.19,0,0,1-2.28,2.28,11.34,11.34,0,0,1-11.63.07,7.29,7.29,0,0,1-2.3-2.26,3.16,3.16,0,0,1-.3-3.15,3.31,3.31,0,0,0,2,1.35,11.58,11.58,0,0,0,2.11.41,36.44,36.44,0,0,0,4.32.22,34.44,34.44,0,0,0,4.32-.26,12.53,12.53,0,0,0,2.11-.43A3.3,3.3,0,0,0,306.09,225.89Z"/><path class="cls-6" d="M311.59,205.1a4,4,0,0,1-.45,4.76,5.9,5.9,0,0,1-9.51-.71,4,4,0,0,1,.22-4.78,6,6,0,0,0,2.68,2.13,7.24,7.24,0,0,0,2.05.43,6.57,6.57,0,0,0,2.08-.11A5.54,5.54,0,0,0,311.59,205.1Z"/><ellipse class="cls-10" cx="112" cy="298.5" rx="45.5" ry="15" transform="translate(-1.62 0.61) rotate(-0.31)"/><path class="cls-6" d="M151.5,298.5c.07-1.1-.45.28-1.35,1a20.7,20.7,0,0,1-5.33,2.84,73.39,73.39,0,0,1-19.46,4.41c-14.5,1.57-30.16,1.28-44.12-3.32-2.94-1-7.26-3.06-8.66-4.63-.7-.78.32-.39-.15.22-.14.16.3-.54.47-.63,1.64-.83,3.06-2.32,4.84-3.13,12.6-5.79,28.22-6.26,41.81-5.61a90,90,0,0,1,22.58,3.72,27.47,27.47,0,0,1,7.4,3.3,7.91,7.91,0,0,1,2,1.78c-.39-.55,0,.81-.07.05.52,7.69,12.52,7.23,12-.5-1-14.64-23.08-18.15-34.17-19.47-18.54-2.21-40.07-1.93-57.28,6.22-5.08,2.41-10.25,6.16-11.36,12s3,10.81,7.68,13.85c6.47,4.23,14.71,6.09,22.24,7.28a135.74,135.74,0,0,0,31.78,1.16c12.66-1,40.15-3.83,41.11-21.07C163.92,290.3,151.93,290.84,151.5,298.5Z"/><path class="cls-11" d="M143.06,273a26.16,26.16,0,0,1-.23,3.66c-2,14.65-16,26.06-33.17,26.16-18.54.1-33.65-13.09-33.74-29.45-.08-13.64,10.31-25.19,24.51-28.7a37,37,0,0,1,8.89-1.12C127.86,243.47,143,256.66,143.06,273Z"/><path class="cls-8" d="M141.2,273a29.6,29.6,0,0,1-.22,3.66,25,25,0,0,1-19.41,9.51c-14.1.08-25.6-11.78-25.68-26.48a27.28,27.28,0,0,1,4.36-15,33.77,33.77,0,0,1,8.54-1.11C126.59,243.48,141.1,256.67,141.2,273Z"/><path class="cls-6" d="M137.2,273.2c-.15,5.59-9.59,8.59-14.25,8.94a20.79,20.79,0,0,1-14.84-4.8c-9.21-7.68-10.41-20.77-4.34-30.75l-2.33,1.92c16.72-4,35.22,6.48,35.76,24.69.15,5.14,8.15,4.82,8-.34a34,34,0,0,0-21-30.17,38.81,38.81,0,0,0-21.79-2.52c-4,.7-5.35,1.58-7.18,5.29a31.26,31.26,0,0,0-3.14,11.14c-1.25,13.61,6.54,27.07,19.55,31.83a28.68,28.68,0,0,0,20-.11,29.8,29.8,0,0,0,9.21-5.68c3.42-3.07,4.24-5.24,4.36-9.78C145.33,267.72,137.34,268.07,137.2,273.2Z"/><path class="cls-9" d="M118,243.52a28.48,28.48,0,0,1-10.54,2.07,28.17,28.17,0,0,1-7.55-1,30,30,0,0,1,10.65-2.06A28.49,28.49,0,0,1,118,243.52Z"/><path class="cls-6" d="M138,297.32c9-12.37,12.55-28.42,5.14-42.45-6.51-12.32-18.86-17.72-32.25-18.16A35.19,35.19,0,0,0,78.73,255.5c-6.82,13-5.15,28.29,3.07,40.29,3.61,5.28,12.28.28,8.63-5.05-6.17-9-8.25-20.17-3.07-30.2a25.24,25.24,0,0,1,23.48-13.83c10,.34,18.8,4,23.61,13.21,5.72,11,1.68,23-5.14,32.36-3.79,5.21,4.88,10.2,8.64,5Z"/><ellipse class="cls-8" cx="109" cy="216.5" rx="28" ry="26.5" transform="translate(-6.25 3.26) rotate(-1.67)"/><path class="cls-6" d="M133,216.48c-.29,12.91-11.43,22.44-24,22.52-12.42.08-24-9.64-24-22.48S96.6,194,109.05,194c12.77,0,23.55,9.62,24,22.48.16,5.14,8.16,4.82,8-.34-.89-28.45-38.31-40.3-56.59-19.09a29.79,29.79,0,0,0-2.69,35.48c7.17,11.05,20.75,16.22,33.54,13.83A31.39,31.39,0,0,0,141,216.14C141.11,211,133.12,211.34,133,216.48Z"/><path class="cls-6" d="M104.91,207.66a3.93,3.93,0,0,1,.75,4.51,5.47,5.47,0,0,1-9.09,1.35,3.88,3.88,0,0,1-.5-4.57A5.76,5.76,0,0,0,99,210.42a7,7,0,0,0,3.49-.53A6.26,6.26,0,0,0,104.91,207.66Z"/><path class="cls-6" d="M117.39,229.46a3.15,3.15,0,0,1-.27,3.15,7,7,0,0,1-2.28,2.28,11.32,11.32,0,0,1-11.62.07,7.08,7.08,0,0,1-2.31-2.25,3.16,3.16,0,0,1-.3-3.15,3.32,3.32,0,0,0,2,1.34,11.58,11.58,0,0,0,2.11.41,36.44,36.44,0,0,0,4.32.22,34.48,34.48,0,0,0,4.33-.26,12.62,12.62,0,0,0,2.1-.43A3.3,3.3,0,0,0,117.39,229.46Z"/><path class="cls-6" d="M122.89,208.67a4,4,0,0,1-.45,4.76,5.9,5.9,0,0,1-9.51-.71,4,4,0,0,1,.22-4.78,5.89,5.89,0,0,0,2.68,2.13,7.64,7.64,0,0,0,2.06.44,7.14,7.14,0,0,0,2.07-.11A5.64,5.64,0,0,0,122.89,208.67Z"/><ellipse class="cls-12" cx="207" cy="329" rx="86.5" ry="27.5" transform="translate(-1.7 1.08) rotate(-0.3)"/><path class="cls-6" d="M283.51,329c.05-2,.53-1.2-.14,0-.25.44.66-2.09-.05-.19s.85-.67-.3.42c-.66.62-1.25,1.3-1.92,1.91-1.07,1,1.26-.92,0,0-.36.26-.71.54-1.08.78-.8.5-1.59,1-2.4,1.51a34.8,34.8,0,0,1-5.93,2.91c-11.81,4.77-24.52,7.21-37.12,8.64-29.1,3.3-60.8,2.82-88.81-6.67a56.69,56.69,0,0,1-12.2-5.89c-1.61-1,.65.69-.67-.54l-2-1.87c-.26-.25.5,1.35-.13-.24-.9-2.27.41,1.61-.31-.55-.06-.19,0,2.05,0-.11,0,1.44-.4,1.69.06.3.55-1.69-.79,2.31.13-.1.71-1.83-.75.57.3-.42.66-.62,1.25-1.3,1.92-1.91s-.26.22-.37.3c.35-.27.71-.55,1.08-.78a61.35,61.35,0,0,1,6.39-3.7c9.06-4.35,22.49-7.33,33.6-8.88a258.08,258.08,0,0,1,49.31-2c15.26.8,30.79,3,45.32,7.9a49.78,49.78,0,0,1,12.94,6.39c-1.65-1.2.7.74,1.12,1.1s.53.55.8.81q.75.84-.45-.6l.4.56c.13,0,.46.73.53.85.52.86-.22-1.54-.24-.6,0,2.18.07-2,.18.69.5,12.84,20.49,12,20-.85-.44-11.31-10.17-19-19.61-23.44-13.82-6.57-29.3-9.62-44.42-11.34a271.47,271.47,0,0,0-58.33-.5c-15.62,1.6-31.87,4.23-46.39,10.47-9.72,4.18-21.57,10.67-23.81,22.11-2.29,11.68,6.14,20.62,15.54,26,12.46,7.14,27.46,10.34,41.53,12.38a267.65,267.65,0,0,0,57.9,2c17.89-1.32,36.75-3.95,53.36-11.09,11.55-5,23.85-12.61,24.23-26.57.15-5.4-5.28-9.78-10.41-9.57C287.37,318.79,283.66,323.55,283.51,329Z"/><path class="cls-13" d="M266.64,283.24a45.27,45.27,0,0,1-.44,6.6c-3.71,26.45-30.36,47.06-62.82,47.23-35.11.18-63.72-23.63-63.9-53.17-.14-24.63,19.53-45.48,46.43-51.83a73.51,73.51,0,0,1,16.83-2C237.85,229.88,266.46,253.69,266.64,283.24Z"/><path class="cls-8" d="M263.11,283.25a51.69,51.69,0,0,1-.38,6.61c-8,10.43-20,17.08-33.45,17.15-24.29.12-44.12-21.28-44.28-47.84A50.93,50.93,0,0,1,192.5,232a55.74,55.74,0,0,1,14.71-2C237.9,229.88,262.93,253.71,263.11,283.25Z"/><path class="cls-6" d="M255.11,283.59c0,1.49,0,3-.17,4.47l2-3.69c-12.22,15.42-34,19.93-49.58,6.52-16-13.71-18.32-37.35-7.79-55l-4.66,3.84c29.24-7.55,59.65,13.1,60.23,43.91.2,10.29,16.19,9.64,16-.67-.76-39.77-39.36-67.32-77.42-59.38-6.26,1.31-8.73,4.81-11.25,10.41a59.19,59.19,0,0,0-4.81,16.46,60.55,60.55,0,0,0,3.06,29.2c6.35,16.78,20.39,30.58,38.25,34.33a49.74,49.74,0,0,0,32-4.17,50.84,50.84,0,0,0,13.62-9.89,29.9,29.9,0,0,0,5.18-6.21c1.59-2.95,1.3-7.51,1.33-10.75C271.2,272.63,255.21,273.3,255.11,283.59Z"/><path class="cls-9" d="M219.09,230a56.6,56.6,0,0,1-34.27,2A59.56,59.56,0,0,1,205,228.24,56.23,56.23,0,0,1,219.09,230Z"/><path class="cls-6" d="M255.85,329.63c14-18,22.44-39.5,17.77-62.47-3.77-18.55-17-35-34-43.25-18.26-8.85-41.73-9.89-60.7-2.73a66.86,66.86,0,0,0-38.69,38.95c-8.33,21.74-3.64,46.17,9.92,64.7,3.18,4.35,8.68,6.51,13.68,3.59,4.3-2.51,6.79-9.3,3.59-13.68-9-12.31-13.79-27.13-10.2-42a46.94,46.94,0,0,1,23.15-30.38c12.77-6.94,30.31-7.6,44.29-3.08,12.35,4,23,13.64,27.55,25.72,6.62,17.43.56,36.22-10.51,50.5-3.31,4.26-4.16,10,0,14.14,3.44,3.45,10.81,4.29,14.14,0Z"/><ellipse class="cls-8" cx="202" cy="181" rx="47.5" ry="52.5" transform="translate(17.79 380.08) rotate(-89.08)"/><path class="cls-6" d="M248.5,181.07c-.13,18.07-13,33.05-29.76,38.71-17.37,5.88-37.61,2.11-50.91-10.76s-16.25-32.38-5.51-47.75c11-15.67,30.53-24.53,49.41-20.83,19.87,3.9,36.29,19.78,36.77,40.63.18,7.71,12.17,7.23,12-.51-.53-23.12-16.64-42.1-38-49.6-23.39-8.21-49-.57-65.42,17.76-15.77,17.65-18,42.78-3.56,62,14.32,19.07,39,27.08,62.11,22.3,25.07-5.2,44.7-26.5,44.89-52.5C260.55,172.84,248.56,173.35,248.5,181.07Z"/><path class="cls-6" d="M194.38,165.22a7.1,7.1,0,0,1-.11,7.38,9.4,9.4,0,0,1-14.49,2,7.15,7.15,0,0,1-2.14-7.08,10.41,10.41,0,0,0,4.47,3.91,8.65,8.65,0,0,0,9.07-1.26A10.22,10.22,0,0,0,194.38,165.22Z"/><path class="cls-6" d="M218,204.59a4.52,4.52,0,0,1,0,2.65,7.46,7.46,0,0,1-1.34,2.42,13.4,13.4,0,0,1-4.27,3.32,23.72,23.72,0,0,1-20.4.11,13.36,13.36,0,0,1-4.3-3.27,7.14,7.14,0,0,1-1.37-2.41,4.53,4.53,0,0,1-.07-2.65,6,6,0,0,0,3,3.2,17.63,17.63,0,0,0,4.09,1.46,38.57,38.57,0,0,0,8.8.92,38,38,0,0,0,8.79-1,16.82,16.82,0,0,0,4.07-1.5A6,6,0,0,0,218,204.59Z"/><path class="cls-6" d="M228.45,167a6.28,6.28,0,0,1,.07,3.91,8.49,8.49,0,0,1-2.16,3.56A10.4,10.4,0,0,1,211,173.42a8.35,8.35,0,0,1-1.63-3.83,6.17,6.17,0,0,1,.62-3.86,9.93,9.93,0,0,0,3.81,4.94,10.38,10.38,0,0,0,5,1.7,10.24,10.24,0,0,0,5.18-1A9.9,9.9,0,0,0,228.45,167Z"/><path d="M455.91,141H444v17.62a8,8,0,0,1-1.84,5.73,6.59,6.59,0,0,1-9.36,0,8,8,0,0,1-1.8-5.66v-48q0-4.17,2-6t6.26-1.78h16.68a45.34,45.34,0,0,1,11.38,1.1,17.19,17.19,0,0,1,6.8,3.53,16,16,0,0,1,4.36,6,20.66,20.66,0,0,1,1.48,8q0,9.51-6,14.42T455.91,141Zm-4.43-29H443v19h8.48a25.37,25.37,0,0,0,7.44-.93,8.59,8.59,0,0,0,4.56-3.06,9.06,9.06,0,0,0,1.57-5.55,9.42,9.42,0,0,0-2.41-6.7Q459.92,112,451.48,112Z"/><path d="M500,149.56v10a7.76,7.76,0,0,1-1.71,5.48,5.76,5.76,0,0,1-4.36,1.82,5.5,5.5,0,0,1-4.26-1.85,7.88,7.88,0,0,1-1.67-5.45v-33.4q0-8.09,5.85-8.09a4.87,4.87,0,0,1,4.3,1.89,10.34,10.34,0,0,1,1.45,5.58A21.08,21.08,0,0,1,504,120a9.13,9.13,0,0,1,6.05-1.89,15.49,15.49,0,0,1,7.34,1.89q3.55,1.89,3.56,5a4.77,4.77,0,0,1-1.52,3.63,4.71,4.71,0,0,1-3.27,1.43,14.7,14.7,0,0,1-3.19-.82,14.88,14.88,0,0,0-4.46-.81,6.54,6.54,0,0,0-4.31,1.38,8.94,8.94,0,0,0-2.59,4.11,28.77,28.77,0,0,0-1.28,6.49C500.12,142.9,500,146,500,149.56Z"/><path d="M566.22,142.49a27.27,27.27,0,0,1-1.61,9.55,21.07,21.07,0,0,1-4.67,7.52,20.5,20.5,0,0,1-7.31,4.82,25.81,25.81,0,0,1-9.56,1.68,24.93,24.93,0,0,1-9.47-1.7,20.85,20.85,0,0,1-12-12.34,27.34,27.34,0,0,1-1.59-9.53,27.83,27.83,0,0,1,1.61-9.65,21,21,0,0,1,4.63-7.47,20.41,20.41,0,0,1,7.31-4.78,27.63,27.63,0,0,1,19,0,20.7,20.7,0,0,1,7.35,4.84,20.93,20.93,0,0,1,4.65,7.48A27.55,27.55,0,0,1,566.22,142.49Zm-11.63,0q0-7.1-3.13-11.05a10.15,10.15,0,0,0-8.39-4,10.45,10.45,0,0,0-6,1.76,11.26,11.26,0,0,0-4,5.21,21.26,21.26,0,0,0-1.4,8,21,21,0,0,0,1.38,7.94,11.36,11.36,0,0,0,3.95,5.2,10.91,10.91,0,0,0,14.44-2.16Q554.58,149.5,554.59,142.49Z"/><path d="M618,127.13v34.08a35.72,35.72,0,0,1-1.25,10,16.07,16.07,0,0,1-4,7,16.62,16.62,0,0,1-7.2,4.08,39,39,0,0,1-11.06,1.34,32.22,32.22,0,0,1-10.83-1.7,18.7,18.7,0,0,1-7.35-4.38,8,8,0,0,1-2.58-5.53,4.58,4.58,0,0,1,1.46-3.5,5,5,0,0,1,3.53-1.35,5.79,5.79,0,0,1,4.51,2.28q.94,1.15,2,2.34a11.51,11.51,0,0,0,2.24,2,8.55,8.55,0,0,0,2.94,1.24,16.76,16.76,0,0,0,4,.41,16.06,16.06,0,0,0,7.07-1.26,7.28,7.28,0,0,0,3.53-3.55,14.44,14.44,0,0,0,1.18-4.88c.11-1.73.2-4.52.25-8.35a19.05,19.05,0,0,1-6.25,5.75,17,17,0,0,1-8.44,2,17.76,17.76,0,0,1-10.29-3,19.18,19.18,0,0,1-6.77-8.42,31.11,31.11,0,0,1-2.36-12.5,29.59,29.59,0,0,1,1.44-9.54,20,20,0,0,1,4.1-7.18,17.52,17.52,0,0,1,6.15-4.4,19.28,19.28,0,0,1,7.64-1.49,18.3,18.3,0,0,1,8.64,1.92,21,21,0,0,1,6.79,6v-1.59a6.87,6.87,0,0,1,1.5-4.73,5,5,0,0,1,3.87-1.67c2.26,0,3.77.74,4.51,2.21A14.45,14.45,0,0,1,618,127.13Zm-33.59,15q0,7.05,3.08,10.67a10,10,0,0,0,8,3.61,10.41,10.41,0,0,0,5.46-1.55,11.42,11.42,0,0,0,4.18-4.68,16.29,16.29,0,0,0,1.62-7.58q0-7.09-3.12-11a10,10,0,0,0-8.22-4,9.64,9.64,0,0,0-8,3.79Q584.4,135.14,584.41,142.1Z"/><path d="M880,143.27v15.47a7.93,7.93,0,0,1-1.67,5.5,5.62,5.62,0,0,1-4.39,1.84,5.49,5.49,0,0,1-4.3-1.84,8,8,0,0,1-1.64-5.5V140.16a58.55,58.55,0,0,0-.29-6.63,7.11,7.11,0,0,0-1.58-3.87,5,5,0,0,0-4-1.52q-5.57,0-7.32,3.82T853,142.89v15.85a8,8,0,0,1-1.64,5.48,6,6,0,0,1-8.67,0,7.85,7.85,0,0,1-1.69-5.48V125.56a7.25,7.25,0,0,1,1.5-5,5.06,5.06,0,0,1,4-1.69,5.34,5.34,0,0,1,3.95,1.59,5.92,5.92,0,0,1,1.59,4.38V126a20,20,0,0,1,6.42-5.27,16.82,16.82,0,0,1,7.59-1.69,15.11,15.11,0,0,1,7.47,1.73,13.49,13.49,0,0,1,5.15,5.23,20.2,20.2,0,0,1,6.25-5.25,16,16,0,0,1,7.39-1.71,16.83,16.83,0,0,1,8.15,1.86,11.8,11.8,0,0,1,5.1,5.31c1,2.09,1.48,5.36,1.48,9.84v22.7a7.92,7.92,0,0,1-1.65,5.47,6,6,0,0,1-8.68,0,7.9,7.9,0,0,1-1.67-5.45V139.23a44.33,44.33,0,0,0-.32-5.94,6.84,6.84,0,0,0-1.7-3.75,5.45,5.45,0,0,0-4.22-1.52,7.75,7.75,0,0,0-4.32,1.35,9.16,9.16,0,0,0-3.18,3.62Q880,135.9,880,143.27Z"/><path d="M924,113.51a6.13,6.13,0,0,1-4.14-1.48,5.29,5.29,0,0,1-1.72-4.21,5.24,5.24,0,0,1,1.77-4.06,5.91,5.91,0,0,1,4.09-1.59,6,6,0,0,1,4,1.45,5.14,5.14,0,0,1,1.74,4.2,5.32,5.32,0,0,1-1.7,4.19A5.9,5.9,0,0,1,924,113.51Zm6,11.39v34.68a7.79,7.79,0,0,1-1.71,5.46,5.7,5.7,0,0,1-4.36,1.84,5.42,5.42,0,0,1-4.28-1.89,8,8,0,0,1-1.65-5.41V125.25a7.7,7.7,0,0,1,1.65-5.36,5.54,5.54,0,0,1,4.28-1.8,5.78,5.78,0,0,1,4.36,1.8A7,7,0,0,1,930,124.9Z"/><path d="M953,125.32v1.43a20,20,0,0,1,6.59-5.84,17.56,17.56,0,0,1,8.22-1.86,16.44,16.44,0,0,1,8.08,2,12.53,12.53,0,0,1,5.31,5.57,13.42,13.42,0,0,1,1.47,4.52,47.47,47.47,0,0,1,.33,6.19v21.58a8,8,0,0,1-1.65,5.47,5.94,5.94,0,0,1-8.67,0,7.92,7.92,0,0,1-1.68-5.43V139.65c0-3.79-.53-6.68-1.58-8.69s-3.14-3-6.28-3a9.37,9.37,0,0,0-5.6,1.82,10.58,10.58,0,0,0-3.7,5q-.84,2.56-.84,9.59v14.49a7.79,7.79,0,0,1-1.69,5.47,5.69,5.69,0,0,1-4.38,1.82,5.42,5.42,0,0,1-4.26-1.89,7.92,7.92,0,0,1-1.67-5.4v-33.4s.89-3.86,1.85-4.95a5,5,0,0,1,3.95-1.63,5.42,5.42,0,0,1,2.77.72,5.09,5.09,0,0,1,2,2.17C952,122.76,953,125.32,953,125.32Z"/><path d="M1037,127.13v34.08a35.72,35.72,0,0,1-1.25,10,16.07,16.07,0,0,1-4,7,16.62,16.62,0,0,1-7.2,4.08,39,39,0,0,1-11.06,1.34,32.22,32.22,0,0,1-10.83-1.7,18.7,18.7,0,0,1-7.35-4.38,8,8,0,0,1-2.58-5.53,4.58,4.58,0,0,1,1.46-3.5,5,5,0,0,1,3.53-1.35,5.79,5.79,0,0,1,4.51,2.28q.94,1.15,2,2.34a11.51,11.51,0,0,0,2.24,2,8.55,8.55,0,0,0,2.94,1.24,16.76,16.76,0,0,0,4,.41,16.06,16.06,0,0,0,7.07-1.26,7.28,7.28,0,0,0,3.53-3.55,14.44,14.44,0,0,0,1.18-4.88c.11-1.73.2-4.52.25-8.35a19.05,19.05,0,0,1-6.25,5.75,17,17,0,0,1-8.44,2,17.76,17.76,0,0,1-10.29-3,19.18,19.18,0,0,1-6.77-8.42,31.11,31.11,0,0,1-2.36-12.5,29.59,29.59,0,0,1,1.44-9.54,20,20,0,0,1,4.1-7.18,17.52,17.52,0,0,1,6.15-4.4,19.28,19.28,0,0,1,7.64-1.49,18.3,18.3,0,0,1,8.64,1.92,21,21,0,0,1,6.79,6v-1.59a6.87,6.87,0,0,1,1.5-4.73,5,5,0,0,1,3.87-1.67c2.26,0,3.77.74,4.51,2.21A14.45,14.45,0,0,1,1037,127.13Zm-33.65,15q0,7.05,3.08,10.67a10,10,0,0,0,8,3.61,10.41,10.41,0,0,0,5.46-1.55,11.42,11.42,0,0,0,4.18-4.68,16.29,16.29,0,0,0,1.62-7.58q0-7.09-3.12-11a10,10,0,0,0-8.22-4,9.64,9.64,0,0,0-8,3.79Q1003.34,135.14,1003.35,142.1Z"/><text class="cls-14" transform="translate(425 307)"><tspan class="cls-15">W</tspan><tspan x="40.18" y="0">e h</tspan><tspan class="cls-15" x="103.9" y="0">a</tspan><tspan class="cls-16" x="128.95" y="0">v</tspan><tspan x="152.22" y="0">e </tspan><tspan class="cls-15" x="189.36" y="0">e</tspan><tspan class="cls-16" x="214.41" y="0">v</tspan><tspan x="237.68" y="0">erything u need.</tspan></text><text class="cls-17" transform="matrix(0.56, 0, 0, 1, 616.95, 237.44)">RAM</text><text class="cls-18" transform="translate(431 237) scale(1.16 1)">Aash</text></g></g></svg>